<svg width="101" height="27" viewBox="0 0 101 27" fill="none" xmlns="http://www.w3.org/2000/svg">
<path d="M4.8 5.35V22.75H12.6V25H2.25V5.35H4.8ZM21.2377 4.99C23.4777 4.99 25.1277 5.55 26.1877 6.67C27.2477 7.79 27.7777 9.38 27.7777 11.44V18.91C27.7777 20.97 27.2477 22.56 26.1877 23.68C25.1277 24.8 23.4777 25.36 21.2377 25.36C18.9977 25.36 17.3477 24.8 16.2877 23.68C15.2277 22.56 14.6977 20.97 14.6977 18.91V11.44C14.6977 9.38 15.2277 7.79 16.2877 6.67C17.3477 5.55 18.9977 4.99 21.2377 4.99ZM21.2377 7.24C19.9177 7.24 18.9177 7.57 18.2377 8.23C17.5777 8.89 17.2477 9.86 17.2477 11.14V19.18C17.2477 20.46 17.5777 21.44 18.2377 22.12C18.9177 22.78 19.9177 23.11 21.2377 23.11C22.5577 23.11 23.5477 22.78 24.2077 22.12C24.8877 21.44 25.2277 20.46 25.2277 19.18V11.17C25.2277 9.89 24.8877 8.92 24.2077 8.26C23.5477 7.58 22.5577 7.24 21.2377 7.24ZM44.8334 5.35L38.9234 25H35.5634L29.8334 5.35H32.5334L37.2434 22.54L42.1334 5.35H44.8334ZM60.0844 5.35V7.66H54.3844V25H51.8344V7.66H46.1344V5.35H60.0844Z" fill="#777777"/>
<path d="M67.78 7.45L65.88 11.75V14H65.03V11.75L63.13 7.45H64.1L65.46 10.85L66.83 7.45H67.78ZM69.6373 9C70.2307 9 70.6707 9.16 70.9573 9.48C71.2507 9.79333 71.3973 10.24 71.3973 10.82V12.3C71.3973 12.88 71.2507 13.33 70.9573 13.65C70.6707 13.9633 70.2307 14.12 69.6373 14.12C69.044 14.12 68.6007 13.9633 68.3073 13.65C68.0207 13.33 67.8773 12.88 67.8773 12.3V10.82C67.8773 10.24 68.0207 9.79333 68.3073 9.48C68.6007 9.16 69.044 9 69.6373 9ZM69.6373 9.71C69.3507 9.71 69.1273 9.8 68.9673 9.98C68.8073 10.16 68.7273 10.4167 68.7273 10.75V12.37C68.7273 12.7033 68.8073 12.96 68.9673 13.14C69.1273 13.32 69.3507 13.41 69.6373 13.41C69.924 13.41 70.1473 13.32 70.3073 13.14C70.4673 12.96 70.5473 12.7033 70.5473 12.37V10.74C70.5473 10.4067 70.4673 10.1533 70.3073 9.98C70.1473 9.8 69.924 9.71 69.6373 9.71ZM76.0941 14H75.2941V13.3C75.1141 13.5667 74.9141 13.77 74.6941 13.91C74.4741 14.05 74.2408 14.12 73.9941 14.12C73.5875 14.12 73.2675 13.98 73.0341 13.7C72.8075 13.4133 72.6941 12.9967 72.6941 12.45V9.12H73.5441V12.3C73.5441 12.6533 73.5975 12.9133 73.7041 13.08C73.8175 13.2467 73.9708 13.33 74.1641 13.33C74.3441 13.33 74.5308 13.26 74.7241 13.12C74.9241 12.9733 75.0975 12.7733 75.2441 12.52V9.12H76.0941V14ZM80.1957 7.45V13.25H82.7957V14H79.3457V7.45H80.1957ZM85.3112 9C85.9045 9 86.3445 9.16 86.6312 9.48C86.9245 9.79333 87.0712 10.24 87.0712 10.82V12.3C87.0712 12.88 86.9245 13.33 86.6312 13.65C86.3445 13.9633 85.9045 14.12 85.3112 14.12C84.7178 14.12 84.2745 13.9633 83.9812 13.65C83.6945 13.33 83.5512 12.88 83.5512 12.3V10.82C83.5512 10.24 83.6945 9.79333 83.9812 9.48C84.2745 9.16 84.7178 9 85.3112 9ZM85.3112 9.71C85.0245 9.71 84.8012 9.8 84.6412 9.98C84.4812 10.16 84.4012 10.4167 84.4012 10.75V12.37C84.4012 12.7033 84.4812 12.96 84.6412 13.14C84.8012 13.32 85.0245 13.41 85.3112 13.41C85.5978 13.41 85.8212 13.32 85.9812 13.14C86.1412 12.96 86.2212 12.7033 86.2212 12.37V10.74C86.2212 10.4067 86.1412 10.1533 85.9812 9.98C85.8212 9.8 85.5978 9.71 85.3112 9.71ZM91.8587 9.12L90.3487 14H89.2387L87.7387 9.12H88.6387L89.7987 13.38L90.9587 9.12H91.8587ZM94.2258 9C94.7858 9 95.2124 9.15333 95.5058 9.46C95.7991 9.76667 95.9458 10.21 95.9458 10.79V11.82H93.3758V12.41C93.3758 12.75 93.4558 12.9967 93.6158 13.15C93.7824 13.2967 94.0424 13.37 94.3958 13.37C94.7424 13.37 95.1758 13.3167 95.6958 13.21L95.7158 13.95C95.0958 14.0633 94.6524 14.12 94.3858 14.12C93.7258 14.12 93.2491 13.9767 92.9558 13.69C92.6691 13.4033 92.5258 12.96 92.5258 12.36V10.79C92.5258 10.21 92.6658 9.76667 92.9458 9.46C93.2324 9.15333 93.6591 9 94.2258 9ZM94.2258 9.71C93.9658 9.71 93.7591 9.79333 93.6058 9.96C93.4524 10.12 93.3758 10.3533 93.3758 10.66V11.14H95.0958V10.69C95.0958 10.37 95.0158 10.1267 94.8558 9.96C94.7024 9.79333 94.4924 9.71 94.2258 9.71ZM97.4984 12.9C97.6784 12.9 97.8151 12.94 97.9084 13.02C98.0018 13.0933 98.0484 13.2033 98.0484 13.35V13.67C98.0484 13.8633 98.0251 14.0333 97.9784 14.18L97.5484 15.61H96.9484L97.3084 14.08C97.0751 14.0267 96.9584 13.8833 96.9584 13.65V13.35C96.9584 13.2033 97.0051 13.0933 97.0984 13.02C97.1918 12.94 97.3251 12.9 97.4984 12.9ZM67.26 20.12L65.02 26.85H64.17L64.81 25H64.49L63.1 20.12H64.03L65.08 24.39L66.38 20.12H67.26ZM69.6862 20C70.2795 20 70.7195 20.16 71.0062 20.48C71.2995 20.7933 71.4462 21.24 71.4462 21.82V23.3C71.4462 23.88 71.2995 24.33 71.0062 24.65C70.7195 24.9633 70.2795 25.12 69.6862 25.12C69.0928 25.12 68.6495 24.9633 68.3562 24.65C68.0695 24.33 67.9262 23.88 67.9262 23.3V21.82C67.9262 21.24 68.0695 20.7933 68.3562 20.48C68.6495 20.16 69.0928 20 69.6862 20ZM69.6862 20.71C69.3995 20.71 69.1762 20.8 69.0162 20.98C68.8562 21.16 68.7762 21.4167 68.7762 21.75V23.37C68.7762 23.7033 68.8562 23.96 69.0162 24.14C69.1762 24.32 69.3995 24.41 69.6862 24.41C69.9728 24.41 70.1962 24.32 70.3562 24.14C70.5162 23.96 70.5962 23.7033 70.5962 23.37V21.74C70.5962 21.4067 70.5162 21.1533 70.3562 20.98C70.1962 20.8 69.9728 20.71 69.6862 20.71ZM76.143 25H75.343V24.3C75.163 24.5667 74.963 24.77 74.743 24.91C74.523 25.05 74.2896 25.12 74.043 25.12C73.6363 25.12 73.3163 24.98 73.083 24.7C72.8563 24.4133 72.743 23.9967 72.743 23.45V20.12H73.593V23.3C73.593 23.6533 73.6463 23.9133 73.753 24.08C73.8663 24.2467 74.0196 24.33 74.213 24.33C74.393 24.33 74.5796 24.26 74.773 24.12C74.973 23.9733 75.1463 23.7733 75.293 23.52V20.12H76.143V25ZM79.6777 20C79.771 20 79.8443 20.0067 79.8977 20.02V20.98C79.7977 20.96 79.6677 20.95 79.5077 20.95C79.041 20.95 78.671 21.1833 78.3977 21.65V25H77.5477V20.12H78.3477V20.85C78.5277 20.5767 78.7277 20.3667 78.9477 20.22C79.1743 20.0733 79.4177 20 79.6777 20ZM83.4465 18.17V25H82.5965V18.17H83.4465ZM86.5026 20C87.0959 20 87.5359 20.16 87.8226 20.48C88.1159 20.7933 88.2626 21.24 88.2626 21.82V23.3C88.2626 23.88 88.1159 24.33 87.8226 24.65C87.5359 24.9633 87.0959 25.12 86.5026 25.12C85.9092 25.12 85.4659 24.9633 85.1726 24.65C84.8859 24.33 84.7426 23.88 84.7426 23.3V21.82C84.7426 21.24 84.8859 20.7933 85.1726 20.48C85.4659 20.16 85.9092 20 86.5026 20ZM86.5026 20.71C86.2159 20.71 85.9926 20.8 85.8326 20.98C85.6726 21.16 85.5926 21.4167 85.5926 21.75V23.37C85.5926 23.7033 85.6726 23.96 85.8326 24.14C85.9926 24.32 86.2159 24.41 86.5026 24.41C86.7892 24.41 87.0126 24.32 87.1726 24.14C87.3326 23.96 87.4126 23.7033 87.4126 23.37V21.74C87.4126 21.4067 87.3326 21.1533 87.1726 20.98C87.0126 20.8 86.7892 20.71 86.5026 20.71ZM91.3594 18.05C91.5794 18.05 91.7894 18.0733 91.9894 18.12V18.8C91.7894 18.7667 91.5827 18.75 91.3694 18.75C91.1627 18.75 90.9994 18.8167 90.8794 18.95C90.766 19.0833 90.7094 19.2867 90.7094 19.56V20.12H91.7094V20.82H90.7094V25H89.8594V20.82H89.1594V20.12H89.8594V19.61C89.866 19.09 89.996 18.7 90.2494 18.44C90.5027 18.18 90.8727 18.05 91.3594 18.05ZM93.6844 20.12H94.9844V20.82H93.6844V23.68C93.6844 23.9333 93.7344 24.1167 93.8344 24.23C93.941 24.3367 94.1044 24.39 94.3244 24.39C94.6044 24.39 94.8777 24.3567 95.1444 24.29L95.1644 25C94.871 25.08 94.6044 25.12 94.3644 25.12C93.831 25.12 93.441 25.0033 93.1944 24.77C92.9544 24.53 92.8344 24.1433 92.8344 23.61V20.82H92.1344V20.12H92.8344L92.9944 18.82H93.6844V20.12ZM96.8933 18.05L96.8233 23H96.0133L95.9433 18.05H96.8933ZM96.4133 23.92C96.5933 23.92 96.7299 23.96 96.8233 24.04C96.9233 24.12 96.9733 24.2333 96.9733 24.38V24.67C96.9733 24.8167 96.9233 24.9267 96.8233 25C96.7299 25.08 96.5933 25.12 96.4133 25.12C96.2399 25.12 96.1033 25.08 96.0033 25C95.9099 24.9267 95.8633 24.8167 95.8633 24.67V24.38C95.8633 24.2333 95.9099 24.12 96.0033 24.04C96.1033 23.96 96.2399 23.92 96.4133 23.92Z" fill="#AAAAAA"/>
</svg>
